<svg xmlns="http://www.w3.org/2000/svg" width="689.896" height="657" viewBox="0 0 689.896 657">
  <g id="Group_158" data-name="Group 158" transform="translate(951.903 67.172)" opacity="0.078">
    <path id="Path_107" data-name="Path 107" d="M-943.494,267.525l289.712,294.546a63.96,63.96,0,0,0,45.916,19.322,63.967,63.967,0,0,0,45.9-19.3l.009-.01,291.538-294.543-.034-176.407L-397.875-38.738a66.174,66.174,0,0,0-47.5-20A66.205,66.205,0,0,0-492.9-38.726L-607.847,78.466l-114.6-117.2a66.173,66.173,0,0,0-47.5-20h-.012a66.317,66.317,0,0,0-47.591,20.083L-943.494,91.192Zm335.628,321.3a71.3,71.3,0,0,1-51.19-21.533L-950.9,270.575V88.174l6.283-6.481L-822.846-43.856a73.692,73.692,0,0,1,52.883-22.313h.012A73.512,73.512,0,0,1-717.17-43.952l109.329,111.81,109.663-111.8a73.547,73.547,0,0,1,52.8-22.226A73.519,73.519,0,0,1-392.6-43.959L-263.042,88.08l.034,182.519-6.447,6.516L-556.7,567.322a71.3,71.3,0,0,1-51.166,21.506" fill="#fff" opacity="0.35"/>
    <rect id="Rectangle_72" data-name="Rectangle 72" width="689.896" height="657" transform="translate(-951.903 -67.172)" fill="none"/>
    <path id="Path_108" data-name="Path 108" d="M-924.994,259.9-640.6,549.028a45.612,45.612,0,0,0,32.737,13.791,45.623,45.623,0,0,0,32.74-13.791l.01-.009L-288.933,259.9l-.018-161.152-122.1-124.44a47.834,47.834,0,0,0-34.325-14.47A47.828,47.828,0,0,0-479.706-25.7L-607.887,104.946-735.632-25.7A47.818,47.818,0,0,0-769.954-40.16h-.013A47.817,47.817,0,0,0-804.285-25.7l-120.7,124.424Zm317.128,310.356a52.959,52.959,0,0,1-38.011-16L-932.4,262.947l.009-167.238,1.05-1.085L-809.578-30.9A55.18,55.18,0,0,1-769.967-47.6h.013a55.146,55.146,0,0,1,39.6,16.686l122.47,125.248,122.9-125.257A55.176,55.176,0,0,1-445.379-47.6a55.177,55.177,0,0,1,39.6,16.683L-281.542,95.7l.019,167.258-1.077,1.09L-569.861,554.261a52.969,52.969,0,0,1-38.005,15.993" fill="#fff" opacity="0.75"/>
    <rect id="Rectangle_73" data-name="Rectangle 73" width="652.881" height="619.852" transform="translate(-933.403 -48.598)" fill="none"/>
    <path id="Path_109" data-name="Path 109" d="M-906.535,252.309-627.47,536.026a27.31,27.31,0,0,0,19.6,8.285,27.317,27.317,0,0,0,19.607-8.285l1.969-1.988,278.907-281.782-.028-145.933L-424.189-12.695a29.525,29.525,0,0,0-21.19-8.953h-.009a29.5,29.5,0,0,0-21.17,8.938L-607.887,131.381-748.768-12.7a29.531,29.531,0,0,0-21.189-8.95h-.01a29.386,29.386,0,0,0-21.1,8.86L-906.535,106.261Zm298.669,299.437a34.661,34.661,0,0,1-24.878-10.5l-281.2-285.891V103.242l117.59-121.235a36.753,36.753,0,0,1,26.385-11.09h.013a36.88,36.88,0,0,1,26.469,11.171l135.606,138.685,136.046-138.7a36.85,36.85,0,0,1,26.445-11.152h.012a36.873,36.873,0,0,1,26.467,11.168L-300,103.279l.028,152.039-1.077,1.09-281.9,284.807-2.668-2.577,2.637,2.611a34.675,34.675,0,0,1-24.882,10.5" fill="#fff"/>
  </g>
</svg>
