<svg xmlns="http://www.w3.org/2000/svg" xmlns:xlink="http://www.w3.org/1999/xlink" width="40" height="40" viewBox="0 0 40 40">
  <defs>
    <clipPath id="clip-path">
      <rect id="Rectangle_63" data-name="Rectangle 63" width="40" height="40" transform="translate(1418 4252)" fill="#ff8200"/>
    </clipPath>
  </defs>
  <g id="Mask_Group_14" data-name="Mask Group 14" transform="translate(-1418 -4252)" clip-path="url(#clip-path)">
    <g id="Box" transform="translate(1417.048 4251.048)">
      <path id="Path_82" data-name="Path 82" d="M38.8,10.533,21.179,1.01a.477.477,0,0,0-.453,0L3.107,10.533a.489.489,0,0,0-.25.419v20a.476.476,0,0,0,.25.419L20.726,40.9a.477.477,0,0,0,.226.057.544.544,0,0,0,.226-.057L38.8,31.371a.476.476,0,0,0,.25-.419v-20a.491.491,0,0,0-.25-.419ZM10.319,15.27l3.648,1.971v6.138l-1.435-2.034a.477.477,0,0,0-.541-.177l-1.672.564ZM37.57,10.952,20.952,19.935l-5.508-2.977L32.062,7.975ZM31.061,7.434,14.444,16.416l-3.6-1.945L27.462,5.489ZM20.952,1.97,26.46,4.947,9.843,13.929,4.335,10.952ZM3.81,11.751l5.557,3V22.4a.476.476,0,0,0,.628.451l1.964-.662,2.1,2.971a.476.476,0,0,0,.865-.274V17.756l5.557,3V39.677L3.81,30.668ZM21.429,39.677V20.76L38.1,11.751V30.668Z" fill="#ff8200"/>
      <path id="Path_83" data-name="Path 83" d="M11.69,31.139,5.465,27.774a.476.476,0,0,0-.453.838l6.226,3.365a.476.476,0,0,0,.453-.838Z" fill="#ff8200"/>
      <path id="Path_84" data-name="Path 84" d="M7.724,30.619,5.465,29.4a.476.476,0,1,0-.453.838l2.259,1.221a.476.476,0,1,0,.453-.838Z" fill="#ff8200"/>
    </g>
  </g>
</svg>
