<svg xmlns="http://www.w3.org/2000/svg" xmlns:xlink="http://www.w3.org/1999/xlink" width="40" height="40" viewBox="0 0 40 40">
  <defs>
    <clipPath id="clip-path">
      <rect id="Rectangle_62" data-name="Rectangle 62" width="40" height="40" transform="translate(1113 4252)" fill="#ff8200"/>
    </clipPath>
  </defs>
  <g id="Mask_Group_13" data-name="Mask Group 13" transform="translate(-1113 -4252)" clip-path="url(#clip-path)">
    <g id="_04-data_driven" data-name="04-data driven" transform="translate(1112.683 4251.681)">
      <g id="linear_color" data-name="linear color">
        <path id="Path_78" data-name="Path 78" d="M39.365,38.413H37.778V13.968a.952.952,0,0,0-.952-.952h-3.81a.952.952,0,0,0-.952.952V38.413h-3.81V21.587a.952.952,0,0,0-.952-.952h-3.81a.952.952,0,0,0-.952.952V38.413H18.73V26.667a.952.952,0,0,0-.952-.952h-3.81a.952.952,0,0,0-.952.952V38.413H9.206V29.206a.952.952,0,0,0-.952-.952H4.444a.952.952,0,0,0-.952.952v9.206H1.27a.952.952,0,0,0,0,1.9h38.1a.952.952,0,0,0,0-1.9Zm-33.968,0V30.159H7.3v8.254Zm9.524,0V27.619h1.9V38.413Zm9.524,0V22.54h1.9V38.413Zm9.524,0V14.921h1.9V38.413Z" fill="#ff8200" stroke="#191919" stroke-width="0.8"/>
        <path id="Path_79" data-name="Path 79" d="M3.492,25.4a.952.952,0,0,0,.952.952c4.983,0,12.5-3.233,19.61-8.438C29.95,13.6,34.41,8.8,36.576,4.54l.589,2.651a.952.952,0,1,0,1.859-.413l-1.27-5.714A.96.96,0,0,0,36.491.378l-5.079,1.9a.952.952,0,0,0,.669,1.783l3.183-1.193A24,24,0,0,1,31.4,8.7a51.411,51.411,0,0,1-8.472,7.671c-6.8,4.978-13.886,8.07-18.485,8.07a.952.952,0,0,0-.952.952Z" fill="#ff8200" stroke="#191919" stroke-width="0.8"/>
        <path id="Path_80" data-name="Path 80" d="M9.631,13.558a3.875,3.875,0,1,0-2.746-1.131A3.88,3.88,0,0,0,9.631,13.558ZM8.23,8.3a1.991,1.991,0,0,1,2.8,0,1.959,1.959,0,0,1,0,2.78,1.991,1.991,0,0,1-2.8,0,1.959,1.959,0,0,1,0-2.78Z" fill="#ff8200" stroke="#191919" stroke-width="0.8"/>
        <path id="Path_81" data-name="Path 81" d="M1.381,12.244l1.014.125.217.521-.625.8a.952.952,0,0,0,.078,1.262l2.288,2.278a.952.952,0,0,0,1.256.077l.806-.626.53.218L7.069,17.9a.952.952,0,0,0,.945.835H11.25a.952.952,0,0,0,.945-.835L12.32,16.9l.529-.218.806.626a.952.952,0,0,0,1.256-.077L17.2,14.95a.952.952,0,0,0,.078-1.262l-.625-.8.217-.521,1.014-.125a.952.952,0,0,0,.836-.945V8.076a.952.952,0,0,0-.836-.945l-1.014-.125-.217-.521.625-.8A.952.952,0,0,0,17.2,4.425L14.911,2.147a.952.952,0,0,0-1.256-.077l-.806.626-.529-.218-.125-1.006A.952.952,0,0,0,11.25.636H8.013a.952.952,0,0,0-.945.835L6.943,2.477l-.53.218-.806-.626a.952.952,0,0,0-1.256.077L2.063,4.425a.952.952,0,0,0-.078,1.262l.625.8-.217.521-1.013.125a.952.952,0,0,0-.836.945V11.3a.952.952,0,0,0,.836.945ZM2.45,8.919l.728-.09A.952.952,0,0,0,3.94,8.25L4.584,6.7a.952.952,0,0,0-.13-.953l-.448-.571,1.1-1.09.58.451a.952.952,0,0,0,.947.128l1.554-.641a.952.952,0,0,0,.582-.763l.09-.722h1.553l.09.722a.952.952,0,0,0,.582.763l1.554.641a.952.952,0,0,0,.947-.128l.58-.451,1.1,1.09-.448.571a.952.952,0,0,0-.13.953l.644,1.547a.952.952,0,0,0,.763.579l.728.09v1.537l-.728.09a.952.952,0,0,0-.763.579l-.644,1.547a.952.952,0,0,0,.13.953l.448.571-1.1,1.09-.58-.451a.953.953,0,0,0-.947-.128l-1.554.641a.952.952,0,0,0-.582.763l-.09.722H8.855l-.09-.722a.952.952,0,0,0-.582-.763l-1.554-.641a.952.952,0,0,0-.947.128l-.58.451-1.1-1.09.448-.571a.952.952,0,0,0,.13-.953L3.94,11.125a.952.952,0,0,0-.763-.579l-.728-.09Z" fill="#ff8200" stroke="#191919" stroke-width="0.8"/>
      </g>
    </g>
  </g>
</svg>
