<svg xmlns="http://www.w3.org/2000/svg" xmlns:xlink="http://www.w3.org/1999/xlink" width="40" height="40" viewBox="0 0 40 40">
  <defs>
    <clipPath id="clip-path">
      <rect id="Rectangle_67" data-name="Rectangle 67" width="40" height="40" transform="translate(209 4252)" fill="#ff8200"/>
    </clipPath>
  </defs>
  <g id="Mask_Group_10" data-name="Mask Group 10" transform="translate(-209 -4252)" clip-path="url(#clip-path)">
    <g id="_7._SUSTAINABILITY" data-name="7. SUSTAINABILITY" transform="translate(202.664 4246.656)">
      <path id="Path_63" data-name="Path 63" d="M15.735,15.86l7.429,4.289a.71.71,0,0,0,.971-.258l2.917-5.037,4.477,7.753a.711.711,0,0,0,.615.355h5.185a.71.71,0,0,0,.63-.382l2.24-4.289a.711.711,0,0,0-.014-.684L34.57,7.882a.711.711,0,0,0-.615-.355h-9.9a7.494,7.494,0,0,0-6.472,3.735l-2.1,3.625a.71.71,0,0,0,.259.972ZM33.545,8.948l5.214,9.033L36.9,21.542H32.556L27.67,13.083v0L25.371,9.1l-.087-.151ZM18.81,11.975a6.072,6.072,0,0,1,4.84-3.013l2.583,4.474-2.969,5.128-6.2-3.579Z" fill="#ff8200"/>
      <path id="Path_64" data-name="Path 64" d="M45.339,26.757l-2.088-3.635a.71.71,0,0,0-.971-.261l-7.429,4.29a.71.71,0,0,0-.261.968l2.9,5.047H28.538a.709.709,0,0,0-.615.355l-2.592,4.489a.71.71,0,0,0,.015.736L27.94,42.83a.71.71,0,0,0,.6.33H39.771a.709.709,0,0,0,.615-.355l4.952-8.576a7.493,7.493,0,0,0,0-7.472Zm-2.965-2.31,1.734,3.019a6.071,6.071,0,0,1,.19,5.7H39.131l-2.958-5.136ZM39.361,41.74H28.932l-2.154-3.392,2.172-3.762H43.492Z" fill="#ff8200"/>
      <path id="Path_65" data-name="Path 65" d="M22.049,33.16l-2.793-.011H16.23L20.7,25.4a.711.711,0,0,0,0-.71L18.112,20.2a.715.715,0,0,0-.645-.354l-4.834.2a.711.711,0,0,0-.585.354L6.432,30.128a.71.71,0,0,0,0,.71l4.952,8.579a7.494,7.494,0,0,0,6.471,3.735l4.192.009a.71.71,0,0,0,.71-.71V33.871A.711.711,0,0,0,22.049,33.16ZM13.082,21.451l4.015-.17,2.172,3.762L14.386,33.5l0,0-2.123,3.682-.26.45L7.867,30.483Zm4.773,20.28a6.072,6.072,0,0,1-5.028-2.684l2.582-4.474h3.844l2.083.009V41.74Z" fill="#ff8200"/>
      <path id="Path_66" data-name="Path 66" d="M25.627,31.6a.711.711,0,0,0,.568.7.728.728,0,0,0,.141.014.71.71,0,0,0,.654-.434l2.689-6.37a.711.711,0,0,0-.655-.987H27.048V20.568a.71.71,0,0,0-1.365-.276l-2.689,6.37a.71.71,0,0,0,.654.987h1.978Zm-.906-5.372.907-2.151v1.153a.71.71,0,0,0,.71.71h1.618l-.907,2.151V26.938a.71.71,0,0,0-.71-.71Z" fill="#ff8200"/>
    </g>
  </g>
</svg>
