<svg xmlns="http://www.w3.org/2000/svg" xmlns:xlink="http://www.w3.org/1999/xlink" width="40" height="40" viewBox="0 0 40 40">
  <defs>
    <clipPath id="clip-path">
      <rect id="Rectangle_65" data-name="Rectangle 65" width="40" height="40" transform="translate(803 4252)" fill="#ff8200"/>
    </clipPath>
  </defs>
  <g id="Mask_Group_12" data-name="Mask Group 12" transform="translate(-803 -4252)" clip-path="url(#clip-path)">
    <g id="_x30_7_Skills" transform="translate(802.54 4251.54)">
      <g id="Group_38" data-name="Group 38">
        <path id="Path_67" data-name="Path 67" d="M31.71,2.992h8.333a.417.417,0,1,0,0-.833H31.71a.417.417,0,1,0,0,.833Z" fill="#ff8200"/>
        <path id="Path_68" data-name="Path 68" d="M31.71,5.464h4.7a.417.417,0,0,0,0-.833h-4.7a.417.417,0,0,0,0,.833Z" fill="#ff8200"/>
        <path id="Path_69" data-name="Path 69" d="M31.71,10.958h8.333a.417.417,0,1,0,0-.833H31.71a.417.417,0,1,0,0,.833Z" fill="#ff8200"/>
        <path id="Path_70" data-name="Path 70" d="M31.71,13.43h4.7a.417.417,0,0,0,0-.833h-4.7a.417.417,0,1,0,0,.833Z" fill="#ff8200"/>
        <path id="Path_71" data-name="Path 71" d="M31.71,18.924h8.333a.417.417,0,1,0,0-.833H31.71a.417.417,0,0,0,0,.833Z" fill="#ff8200"/>
        <path id="Path_72" data-name="Path 72" d="M31.71,21.4h4.7a.417.417,0,0,0,0-.833h-4.7a.417.417,0,0,0,0,.833Z" fill="#ff8200"/>
        <path id="Path_73" data-name="Path 73" d="M1.678,30.531h1.17a10.062,10.062,0,0,0,.321,1.192L2.156,32.3a1.225,1.225,0,0,0-.45,1.667l.671,1.163a1.234,1.234,0,0,0,1.665.444l1.014-.588a9.763,9.763,0,0,0,.872.872l-.589,1.016a1.226,1.226,0,0,0,.449,1.665l1.159.669a1.211,1.211,0,0,0,1.667-.447L9.2,37.751a9.8,9.8,0,0,0,1.187.32v1.17a1.224,1.224,0,0,0,1.226,1.218h1.338a1.22,1.22,0,0,0,1.218-1.218V38.072a9.708,9.708,0,0,0,1.193-.32l.582,1.014a1.214,1.214,0,0,0,1.665.448l1.167-.669a1.225,1.225,0,0,0,.449-1.668l-.588-1.014a9.816,9.816,0,0,0,.871-.871l1.012.591a1.232,1.232,0,0,0,1.669-.451l.67-1.161a1.222,1.222,0,0,0-.45-1.665L21.4,31.723a10.07,10.07,0,0,0,.321-1.192h1.163a1.227,1.227,0,0,0,1.226-1.226V27.967a1.224,1.224,0,0,0-1.226-1.218H21.719a9.816,9.816,0,0,0-.32-1.193l1.012-.581a1.222,1.222,0,0,0,.45-1.666l-.669-1.167a1.235,1.235,0,0,0-1.677-.449l-1.008.588a9.926,9.926,0,0,0-.868-.866l.59-1.018a1.244,1.244,0,0,0-.452-1.67l-1.168-.67a1.233,1.233,0,0,0-1.665.451l-.58,1.016A9.23,9.23,0,0,0,14.17,19.2V18.039a1.223,1.223,0,0,0-1.218-1.226H11.614a1.227,1.227,0,0,0-1.226,1.226V19.2a9.259,9.259,0,0,0-1.187.324l-.586-1.017a1.229,1.229,0,0,0-1.667-.45l-1.164.672A1.244,1.244,0,0,0,5.34,20.4l.587,1.012a9.535,9.535,0,0,0-.871.866l-1.016-.59a1.233,1.233,0,0,0-1.665.451l-.669,1.167a1.226,1.226,0,0,0,.45,1.665l1.013.581a9.816,9.816,0,0,0-.32,1.193H1.678A1.22,1.22,0,0,0,.46,27.967v1.338a1.223,1.223,0,0,0,1.218,1.226Zm-.385-2.564a.385.385,0,0,1,.385-.385H3.2a.417.417,0,0,0,.411-.35,8.883,8.883,0,0,1,.461-1.717.416.416,0,0,0-.182-.509l-1.316-.755a.393.393,0,0,1-.141-.528l.666-1.162a.4.4,0,0,1,.53-.148l1.315.763a.416.416,0,0,0,.531-.1,8.625,8.625,0,0,1,1.254-1.247.417.417,0,0,0,.1-.533l-.76-1.31a.4.4,0,0,1,.14-.54l1.155-.667a.393.393,0,0,1,.533.14l.763,1.323a.416.416,0,0,0,.513.18,8.433,8.433,0,0,1,1.7-.467.417.417,0,0,0,.349-.411v-1.51a.393.393,0,0,1,.393-.392h1.338a.385.385,0,0,1,.385.392v1.51a.417.417,0,0,0,.35.411,8.375,8.375,0,0,1,1.712.467.417.417,0,0,0,.514-.182l.752-1.317a.394.394,0,0,1,.531-.147l1.162.666a.4.4,0,0,1,.147.537L17.742,21.3a.417.417,0,0,0,.1.533,9.112,9.112,0,0,1,1.257,1.25.417.417,0,0,0,.53.093l1.3-.759a.4.4,0,0,1,.54.139l.669,1.167a.392.392,0,0,1-.141.529l-1.315.755a.416.416,0,0,0-.182.509,8.877,8.877,0,0,1,.461,1.717.417.417,0,0,0,.411.35h1.51a.385.385,0,0,1,.393.385v1.338a.389.389,0,0,1-.393.393h-1.51a.416.416,0,0,0-.411.349,9.242,9.242,0,0,1-.461,1.719.416.416,0,0,0,.183.507L22,33.028a.392.392,0,0,1,.142.527l-.67,1.161a.4.4,0,0,1-.533.143L19.628,34.1a.417.417,0,0,0-.532.1,9.054,9.054,0,0,1-1.258,1.258.417.417,0,0,0-.1.531l.761,1.313a.393.393,0,0,1-.141.529l-1.173.672a.381.381,0,0,1-.523-.145l-.755-1.315a.417.417,0,0,0-.509-.182,8.9,8.9,0,0,1-1.717.461.417.417,0,0,0-.35.411v1.517a.385.385,0,0,1-.385.385H11.614a.389.389,0,0,1-.393-.385V37.724a.417.417,0,0,0-.349-.411,17.142,17.142,0,0,1-1.857-.488.417.417,0,0,0-.361.208l-.765,1.32a.378.378,0,0,1-.525.139L6.2,37.821a.393.393,0,0,1-.142-.527l.763-1.315a.417.417,0,0,0-.1-.531A9.054,9.054,0,0,1,5.47,34.191a.417.417,0,0,0-.531-.1l-1.312.761a.394.394,0,0,1-.53-.142l-.668-1.158a.392.392,0,0,1,.141-.529l1.315-.755a.416.416,0,0,0,.183-.507,9.235,9.235,0,0,1-.461-1.719A.416.416,0,0,0,3.2,29.7H1.678a.385.385,0,0,1-.385-.393Z" fill="#ff8200"/>
        <path id="Path_74" data-name="Path 74" d="M24.22,4.7a.321.321,0,0,1,.093.285l-.141.822a1.155,1.155,0,0,0,1.675,1.219l.74-.388a.322.322,0,0,1,.3,0l.739.388A1.156,1.156,0,0,0,29.3,5.811l-.14-.823a.323.323,0,0,1,.092-.285l.6-.583a1.156,1.156,0,0,0-.64-1.97l-.826-.12a.322.322,0,0,1-.242-.176l-.37-.749a1.155,1.155,0,0,0-2.072,0l-.369.748a.323.323,0,0,1-.243.176l-.826.12a1.156,1.156,0,0,0-.64,1.971Zm.163-1.729.826-.12a1.155,1.155,0,0,0,.87-.632l.369-.748a.322.322,0,0,1,.578,0l.37.749a1.155,1.155,0,0,0,.869.632l.825.12a.322.322,0,0,1,.179.549l-.6.584a1.156,1.156,0,0,0-.332,1.021h0l.141.823a.322.322,0,0,1-.467.34L27.273,5.9a1.158,1.158,0,0,0-1.074,0l-.74.388a.322.322,0,0,1-.467-.34l.141-.822A1.156,1.156,0,0,0,24.8,4.106l-.6-.583a.322.322,0,0,1,.179-.549Z" fill="#ff8200"/>
        <path id="Path_75" data-name="Path 75" d="M24.22,12.669a.321.321,0,0,1,.093.285l-.141.822a1.155,1.155,0,0,0,1.675,1.219l.74-.388a.322.322,0,0,1,.3,0l.739.388A1.156,1.156,0,0,0,29.3,13.777l-.14-.823a.322.322,0,0,1,.092-.285l.6-.584a1.156,1.156,0,0,0-.64-1.97l-.826-.12a.322.322,0,0,1-.242-.176l-.37-.749a1.155,1.155,0,0,0-2.072,0l-.369.748a.323.323,0,0,1-.243.176l-.826.12a1.156,1.156,0,0,0-.64,1.971Zm.163-1.729.826-.12a1.155,1.155,0,0,0,.87-.632l.369-.748a.322.322,0,0,1,.578,0l.37.749a1.155,1.155,0,0,0,.869.632l.825.12a.322.322,0,0,1,.179.549l-.6.584a1.156,1.156,0,0,0-.332,1.021h0l.141.823a.322.322,0,0,1-.467.34l-.739-.388a1.158,1.158,0,0,0-1.074,0l-.74.388a.322.322,0,0,1-.467-.34l.141-.822a1.156,1.156,0,0,0-.332-1.023l-.6-.583a.322.322,0,0,1,.179-.549Z" fill="#ff8200"/>
        <path id="Path_76" data-name="Path 76" d="M24.22,20.635a.321.321,0,0,1,.093.285l-.141.822a1.155,1.155,0,0,0,1.675,1.219l.74-.388a.322.322,0,0,1,.3,0l.739.388A1.156,1.156,0,0,0,29.3,21.742l-.14-.823a.322.322,0,0,1,.092-.285l.6-.584a1.156,1.156,0,0,0-.641-1.97l-.825-.12a.322.322,0,0,1-.242-.176l-.37-.749a1.155,1.155,0,0,0-2.072,0l-.369.748a.323.323,0,0,1-.243.176l-.826.12a1.156,1.156,0,0,0-.64,1.971Zm.163-1.729.826-.12a1.155,1.155,0,0,0,.87-.632l.369-.748a.322.322,0,0,1,.578,0l.37.749a1.156,1.156,0,0,0,.87.632l.825.12a.322.322,0,0,1,.179.549l-.6.584a1.156,1.156,0,0,0-.332,1.021h0l.141.823a.322.322,0,0,1-.467.34l-.739-.388a1.158,1.158,0,0,0-1.074,0l-.74.388a.322.322,0,0,1-.467-.34l.141-.822a1.156,1.156,0,0,0-.332-1.023l-.6-.583a.322.322,0,0,1,.179-.549Z" fill="#ff8200"/>
        <path id="Path_77" data-name="Path 77" d="M12.285,33.1a4.466,4.466,0,1,0-4.466-4.466A4.47,4.47,0,0,0,12.285,33.1Zm0-8.1a3.632,3.632,0,1,1-3.633,3.632A3.636,3.636,0,0,1,12.285,25.005Z" fill="#ff8200"/>
      </g>
    </g>
  </g>
</svg>
