<?xml version="1.0" standalone="no"?>
<!DOCTYPE svg PUBLIC "-//W3C//DTD SVG 20010904//EN"
 "http://www.w3.org/TR/2001/REC-SVG-20010904/DTD/svg10.dtd">
<svg version="1.0" xmlns="http://www.w3.org/2000/svg"
 width="201.000000pt" height="201.000000pt" viewBox="0 0 201.000000 201.000000"
 preserveAspectRatio="xMidYMid meet">
<metadata>
Created by potrace 1.14, written by Peter Selinger 2001-2017
</metadata>
<g transform="translate(0.000000,201.000000) scale(0.100000,-0.100000)"
fill="#000000" stroke="none">
<path d="M1030 1682 c-22 -4 -74 -51 -65 -60 2 -2 -1 -17 -7 -33 -7 -21 -19
-31 -46 -39 -21 -6 -38 -6 -40 -1 -2 5 -12 19 -22 31 -11 13 -18 26 -16 29 3
4 -9 13 -26 20 -25 11 -37 11 -71 0 -72 -24 -89 -58 -65 -126 11 -29 9 -36 -9
-60 -12 -16 -26 -27 -32 -25 -6 1 -11 -3 -11 -9 0 -6 -13 -1 -29 10 -33 24
-81 35 -96 24 -6 -5 -23 -23 -38 -41 -37 -46 -36 -83 5 -117 25 -21 32 -34 31
-61 -1 -50 -18 -64 -74 -64 -74 0 -93 -25 -91 -115 0 -35 33 -65 71 -65 46 0
60 -18 63 -78 0 -22 -41 -72 -52 -62 -3 3 -12 -10 -21 -28 -15 -30 -16 -36 -1
-65 32 -67 47 -73 138 -53 48 10 89 -65 60 -109 -33 -51 -10 -100 60 -130 33
-13 39 -13 64 2 16 9 34 27 41 39 7 13 17 20 23 16 6 -3 22 -8 36 -10 30 -4
45 -26 45 -67 1 -50 21 -74 68 -82 23 -4 47 -6 52 -4 6 1 15 3 20 4 27 5 51
52 47 89 -2 9 28 32 47 35 29 5 60 -7 66 -26 6 -20 45 -69 45 -56 0 4 6 2 13
-4 8 -6 17 -8 21 -4 3 4 16 8 28 10 12 2 36 14 54 28 30 23 31 27 23 62 -5 21
-12 47 -14 57 -4 18 29 61 46 61 4 0 10 3 14 6 7 8 55 -13 55 -23 0 -14 64 -8
84 7 26 20 49 66 47 95 0 14 -14 37 -31 52 -32 27 -46 63 -29 73 5 4 7 10 4
15 -9 14 43 43 66 37 67 -18 118 72 82 145 -12 24 -48 40 -98 43 -5 0 -15 16
-21 35 -13 40 0 80 26 80 20 0 60 41 60 62 0 30 -30 86 -57 108 -15 12 -29 17
-31 11 -2 -5 -9 -8 -16 -5 -7 3 -25 0 -40 -6 -33 -12 -61 0 -72 32 -11 33 -12
58 -3 58 16 0 30 42 24 70 -9 40 -77 90 -113 84 -15 -3 -39 -19 -54 -37 -21
-25 -33 -31 -55 -29 -36 5 -54 23 -59 59 -7 52 -10 63 -20 73 -17 17 -79 36
-104 32z"/>
</g>
</svg>
