<svg xmlns="http://www.w3.org/2000/svg" width="46" height="46" viewBox="0 0 46 46">
  <g id="Group_17" data-name="Group 17" transform="translate(-1134 -4667)">
    <circle id="Ellipse_6" data-name="Ellipse 6" cx="23" cy="23" r="23" transform="translate(1134 4667)" fill="#fff"/>
    <path id="Icon_awesome-linkedin-in" data-name="Icon awesome-linkedin-in" d="M5.4,24.146H.4V8.025H5.4ZM2.9,5.826A2.913,2.913,0,1,1,5.8,2.9,2.924,2.924,0,0,1,2.9,5.826ZM24.14,24.146h-5V16.3c0-1.87-.038-4.269-2.6-4.269-2.6,0-3,2.032-3,4.134v7.982h-5V8.025h4.8v2.2h.07a5.26,5.26,0,0,1,4.736-2.6c5.066,0,6,3.336,6,7.669v8.855Z" transform="translate(1144.927 4676.202)" fill="#262626"/>
  </g>
</svg>
