<svg xmlns="http://www.w3.org/2000/svg" width="45" height="46" viewBox="0 0 45 46">
  <g id="Group_19" data-name="Group 19" transform="translate(-828 -4667)">
    <ellipse id="Ellipse_4" data-name="Ellipse 4" cx="22.5" cy="23" rx="22.5" ry="23" transform="translate(828 4667)" fill="#fff"/>
    <path id="Icon_awesome-twitter" data-name="Icon awesome-twitter" d="M24.759,8.966c.018.245.018.49.018.735,0,7.477-5.691,16.091-16.091,16.091A15.982,15.982,0,0,1,0,23.254a11.7,11.7,0,0,0,1.366.07,11.326,11.326,0,0,0,7.021-2.416A5.666,5.666,0,0,1,3.1,16.986a7.132,7.132,0,0,0,1.068.088,5.982,5.982,0,0,0,1.488-.193A5.656,5.656,0,0,1,1.121,11.33v-.07a5.7,5.7,0,0,0,2.556.718A5.664,5.664,0,0,1,1.926,4.414a16.076,16.076,0,0,0,11.661,5.918,6.384,6.384,0,0,1-.14-1.3,5.661,5.661,0,0,1,9.788-3.87A11.135,11.135,0,0,0,26.825,3.8a5.64,5.64,0,0,1-2.486,3.117,11.338,11.338,0,0,0,3.257-.875,12.157,12.157,0,0,1-2.836,2.924Z" transform="translate(836.702 4675.705)" fill="#262626"/>
  </g>
</svg>
