<svg xmlns="http://www.w3.org/2000/svg" width="46" height="46" viewBox="0 0 46 46">
  <g id="Group_20" data-name="Group 20" transform="translate(-675 -4667)">
    <circle id="Ellipse_3" data-name="Ellipse 3" cx="23" cy="23" r="23" transform="translate(675 4667)" fill="#fff"/>
    <g id="Icon_feather-instagram" data-name="Icon feather-instagram" transform="translate(686.502 4678.502)">
      <path id="Path_17" data-name="Path 17" d="M8.749,3h11.5A5.749,5.749,0,0,1,26,8.749v11.5A5.749,5.749,0,0,1,20.247,26H8.749A5.749,5.749,0,0,1,3,20.247V8.749A5.749,5.749,0,0,1,8.749,3Z" transform="translate(-3 -3)" fill="#262626" stroke="#fff" stroke-linecap="round" stroke-linejoin="round" stroke-width="2"/>
      <path id="Path_18" data-name="Path 18" d="M21.213,15.86a4.6,4.6,0,1,1-3.875-3.875,4.6,4.6,0,0,1,3.875,3.875Z" transform="translate(-5.116 -5.086)" fill="#262626" stroke="#fff" stroke-linecap="round" stroke-linejoin="round" stroke-width="2"/>
      <path id="Path_19" data-name="Path 19" d="M26.25,9.75h0" transform="translate(-8.428 -4.576)" fill="none" stroke="#fff" stroke-linecap="round" stroke-linejoin="round" stroke-width="2"/>
    </g>
  </g>
</svg>
