<svg xmlns="http://www.w3.org/2000/svg" width="539.444" height="615.078" viewBox="0 0 539.444 615.078">
  <g id="Group_5" data-name="Group 5" transform="matrix(0.999, -0.052, 0.052, 0.999, 0, 26.158)" opacity="0.5">
    <path id="Subtraction_1" data-name="Subtraction 1" d="M297.62,589.728A298.084,298.084,0,0,1,87.172,503.365a293.755,293.755,0,0,1-63.784-93.727,293.319,293.319,0,0,1,0-229.55A293.75,293.75,0,0,1,87.172,86.363,299.629,299.629,0,0,1,499.81,78.489c-1.54,1.631-3.063,3.249-4.538,4.816l-.122.13c-7.4,7.86-13.789,14.648-14.423,14.648a.054.054,0,0,1-.036-.011C428.813,51.942,365.508,27.56,297.62,27.56c-151.953,0-275.575,124.858-275.575,278.329S145.667,584.217,297.62,584.217c61.01,0,124.577-19.864,183.829-57.444A298.081,298.081,0,0,1,297.62,589.728Z" transform="translate(0 0)" fill="#d30d2b"/>
    <path id="Polygon_1" data-name="Polygon 1" d="M39.269,0l13.09,22.907L39.269,45.814H13.09L0,22.907,13.09,0Z" transform="translate(484.817 74.405) rotate(14)" fill="#ff8200"/>
  </g>
</svg>
