<svg xmlns="http://www.w3.org/2000/svg" width="707.746" height="749.147" viewBox="0 0 707.746 749.147">
  <g id="Group_5" data-name="Group 5" transform="matrix(-0.899, -0.438, 0.438, -0.899, 449.226, 749.147)" opacity="0.5">
    <path id="Subtraction_1" data-name="Subtraction 1" d="M297.62,0A298.084,298.084,0,0,0,87.172,86.364,293.755,293.755,0,0,0,23.388,180.09a293.319,293.319,0,0,0,0,229.55,293.751,293.751,0,0,0,63.784,93.725A299.629,299.629,0,0,0,499.81,511.24c-1.54-1.631-3.063-3.249-4.538-4.816l-.122-.13c-7.4-7.86-13.789-14.648-14.423-14.648a.054.054,0,0,0-.036.011c-51.878,46.129-115.182,70.511-183.071,70.511-151.953,0-275.575-124.858-275.575-278.329S145.667,5.511,297.62,5.511c61.01,0,124.577,19.864,183.829,57.444A298.082,298.082,0,0,0,297.62,0Z" transform="translate(0 0)" fill="#d30d2b"/>
    <path id="Polygon_1" data-name="Polygon 1" d="M39.269,0l13.09,22.907L39.269,45.814H13.09L0,22.907,13.09,0Z" transform="translate(473.734 470.87) rotate(-14)" fill="#ff8200"/>
  </g>
</svg>
