<svg xmlns="http://www.w3.org/2000/svg" width="153.081" height="168.545" viewBox="0 0 153.081 168.545" style="&#10;    transform: scaleX(-1);&#10;">
  <g id="Group_3" data-name="Group 3" transform="translate(-80 -146)">
    <path id="Subtraction_1" data-name="Subtraction 1" d="M85.06,168.545a85.193,85.193,0,0,1-60.147-24.683,83.956,83.956,0,0,1-18.23-26.787,83.831,83.831,0,0,1,0-65.606,83.955,83.955,0,0,1,18.23-26.787,85.635,85.635,0,0,1,117.933-2.251l-1.3,1.376-.035.037a49.77,49.77,0,0,1-4.122,4.186.016.016,0,0,1-.01,0A77.744,77.744,0,0,0,85.06,7.877C41.632,7.877,6.3,43.561,6.3,87.423S41.632,166.97,85.06,166.97c17.437,0,35.6-5.677,52.539-16.418A85.192,85.192,0,0,1,85.06,168.545Z" transform="translate(80 146)" fill="#d30d2b"/>
    <path id="Polygon_1" data-name="Polygon 1" d="M11.223,0l3.741,6.547-3.741,6.547H3.741L0,6.547,3.741,0Z" transform="translate(218.561 167.265) rotate(14)" fill="#ff8200"/>
  </g>
</svg>