<svg xmlns="http://www.w3.org/2000/svg" xmlns:xlink="http://www.w3.org/1999/xlink" width="40" height="40" viewBox="0 0 40 40">
  <defs>
    <clipPath id="clip-path">
      <rect id="Rectangle_59" data-name="Rectangle 59" width="40" height="40" transform="translate(1113 4004)" fill="#ff8200"/>
    </clipPath>
  </defs>
  <g id="Mask_Group_7" data-name="Mask Group 7" transform="translate(-1113 -4004)" clip-path="url(#clip-path)">
    <path id="_4._Market_disruptor" data-name="4. Market disruptor" d="M21.686,13.478l.743-1.077-.646-.171Zm2.113-1.1L21.45,15.787a.559.559,0,0,1-1.038-.328l.306-3.983h0a.553.553,0,0,1,.017-.1.559.559,0,0,1,.682-.4l2.063.546a.551.551,0,0,1,.175.081.559.559,0,0,1,.142.777ZM19.444,3.41a.558.558,0,1,1,1.115,0V7.578a.558.558,0,1,1-1.115,0Zm20,18.884a.558.558,0,0,1,0,1.115H35.274a.558.558,0,0,1,0-1.115ZM33.353,8.709a.56.56,0,0,1,.792.792L31.2,12.448a.56.56,0,0,1-.792-.792ZM.561,23.411a.56.56,0,0,1,0-1.12H4.73a.56.56,0,0,1,0,1.12ZM5.86,9.5a.56.56,0,0,1,.792-.792L9.6,11.656a.56.56,0,1,1-.792.792Zm5.312,5.158,2.955-1.743a.559.559,0,0,1,.766.2l.906,1.536c.11-.034.217-.065.323-.094q.371-.1.782-.174a.558.558,0,0,1,.642.425h0l.767,3.35a.559.559,0,0,1-.42.67l-.042.008h0a5.158,5.158,0,0,0-2.439,9.13.56.56,0,0,1,.094.781h0L13.4,31.455a.56.56,0,0,1-.786.1l-.042-.035c-.219-.175-.428-.356-.624-.542-.1-.094-.2-.19-.291-.29l-1.535.906a.559.559,0,0,1-.766-.2L7.616,28.439a.559.559,0,0,1,.2-.766l1.536-.906a9.575,9.575,0,0,1-.33-1.479,9.709,9.709,0,0,1-.094-1.513L7.2,23.33a.558.558,0,0,1-.4-.678l.857-3.322a.558.558,0,0,1,.678-.4l1.727.446a9.723,9.723,0,0,1,.814-1.279,9.586,9.586,0,0,1,1-1.134l-.906-1.535a.56.56,0,0,1,.2-.766Zm3.042-.5-1.991,1.174.85,1.442h0a.558.558,0,0,1-.113.7,8.507,8.507,0,0,0-2.092,2.781h0a.558.558,0,0,1-.642.3L8.6,20.148,8.02,22.389l1.586.409a.559.559,0,0,1,.456.585,8.563,8.563,0,0,0,.472,3.413.558.558,0,0,1-.228.7l-1.442.851,1.174,1.991,1.442-.85h0a.558.558,0,0,1,.7.113q.253.288.537.558c.051.049.1.1.154.142L14.3,28.473q-.211-.2-.406-.426a6.281,6.281,0,0,1,2.633-10.029c.187-.067.378-.125.568-.173l-.516-2.254-.17.044c-.225.061-.439.126-.64.2a.559.559,0,0,1-.7-.228Zm8.557,1.627h0a.558.558,0,0,0-.59.432L21.4,19.6h0a.608.608,0,0,0-.014.1.559.559,0,0,0,.536.58A5.159,5.159,0,1,1,17.783,28.8l-.023-.029a.56.56,0,0,0-.79-.054l-2.588,2.252h0a.558.558,0,0,0-.058.784,9.6,9.6,0,0,0,.764.8c.157.146.319.286.486.422l-.77,1.608a.558.558,0,0,0,.262.744L18.159,36.8a.558.558,0,0,0,.744-.262l.77-1.607a9.669,9.669,0,0,0,3.018.164l.592,1.68a.559.559,0,0,0,.713.342l3.235-1.14a.559.559,0,0,0,.342-.713l-.592-1.681a9.63,9.63,0,0,0,2.249-2.019l1.608.77a.558.558,0,0,0,.744-.262l1.482-3.094a.558.558,0,0,0-.262-.744l-1.607-.77a9.733,9.733,0,0,0,.2-1.506,9.559,9.559,0,0,0-.037-1.512l1.68-.592a.559.559,0,0,0,.342-.713l-1.14-3.235a.559.559,0,0,0-.713-.342l-1.681.592a9.6,9.6,0,0,0-2.019-2.248L28.6,16.3a.558.558,0,0,0-.262-.744L25.24,14.075a.558.558,0,0,0-.744.262l-.764,1.6a4.42,4.42,0,0,0-.962-.143Zm.857,1.274a4.079,4.079,0,0,0-.47-.11l-.529,2.278A6.276,6.276,0,1,1,17.3,29.913l-1.749,1.522c.1.1.2.2.3.294a8.666,8.666,0,0,0,.752.622h0a.558.558,0,0,1,.174.69l-.724,1.512,2.088,1,.709-1.481a.559.559,0,0,1,.66-.33,8.5,8.5,0,0,0,3.477.187h0a.56.56,0,0,1,.61.367l.557,1.579,2.181-.769-.557-1.579a.559.559,0,0,1,.247-.67,8.56,8.56,0,0,0,2.588-2.324h0a.558.558,0,0,1,.69-.174l1.512.724,1-2.088-1.481-.709a.559.559,0,0,1-.33-.66,8.514,8.514,0,0,0,.186-3.477h0a.56.56,0,0,1,.367-.61l1.579-.557-.769-2.181-1.579.557a.559.559,0,0,1-.67-.247,8.56,8.56,0,0,0-2.324-2.588h0a.558.558,0,0,1-.174-.69l.724-1.512-2.088-1L24.547,16.8a.559.559,0,0,1-.66.33Z" transform="translate(1112.999 4003.999)" fill="#ff8200" fill-rule="evenodd"/>
  </g>
</svg>
