<svg xmlns="http://www.w3.org/2000/svg" xmlns:xlink="http://www.w3.org/1999/xlink" width="40" height="40" viewBox="0 0 40 40">
  <defs>
    <clipPath id="clip-path">
      <rect id="Rectangle_61" data-name="Rectangle 61" width="40" height="40" transform="translate(1698 4004)" fill="#ff8200"/>
    </clipPath>
  </defs>
  <g id="Mask_Group_9" data-name="Mask Group 9" transform="translate(-1698 -4004)" clip-path="url(#clip-path)">
    <g id="layer1" transform="translate(1652.619 3961.837)">
      <path id="path8352" d="M77.343,42.186a5.939,5.939,0,0,0-6.183,4.1c-1.281.1-5.674.353-7.5,2.055L47.912,62.614a3.725,3.725,0,0,0-.257,5.227l11.9,13.111a3.615,3.615,0,0,0,2.864,1.211H77.385a3.7,3.7,0,0,0,3.68-3.683V66.333c2.214-2.21,4.514-14.06,1.659-17.491a5.9,5.9,0,0,0-5.382-6.655Zm-.235,2.659a3.265,3.265,0,0,1,2.847,2.295,22.443,22.443,0,0,0-5.865-.855A3.275,3.275,0,0,1,77.108,44.845Zm2.506,5.019A3.223,3.223,0,0,1,77.84,51.24a2,2,0,1,0-.763,3.85,1.97,1.97,0,0,0,1.91-1.418,6,6,0,0,0,2.222-1.516c.751,5.3-1.276,11.775-2.476,12.8L62.982,79.238a1,1,0,0,1-1.456-.079L49.634,66.048a1,1,0,0,1,.068-1.459L65.455,50.306c2.19-1.812,11.429-1.714,14.159-.441ZM54.605,63.124a1.335,1.335,0,0,0-1.016,2.224l3.831,4.243A1.33,1.33,0,1,0,59.4,67.81l-3.828-4.243a1.326,1.326,0,0,0-.963-.443ZM78.4,68.859V78.48A.984.984,0,0,1,77.384,79.5H66.661Z" fill="#ff8200" stroke="#191919" stroke-width="1"/>
    </g>
  </g>
</svg>
