<svg xmlns="http://www.w3.org/2000/svg" xmlns:xlink="http://www.w3.org/1999/xlink" width="40" height="40" viewBox="0 0 40 40">
  <defs>
    <clipPath id="clip-path">
      <rect id="Rectangle_60" data-name="Rectangle 60" width="40" height="40" transform="translate(1418 4004)" fill="#ff8200"/>
    </clipPath>
  </defs>
  <g id="Mask_Group_8" data-name="Mask Group 8" transform="translate(-1418 -4004)" clip-path="url(#clip-path)">
    <g id="_5.Innovation" data-name="5.Innovation" transform="translate(1420.581 4004)">
      <path id="Path_58" data-name="Path 58" d="M11.127,7.958a3.223,3.223,0,0,0-2.094,3.01,3.187,3.187,0,0,0,.37,1.468,2.569,2.569,0,0,0,0,4.806,3.187,3.187,0,0,0-.37,1.468,3.223,3.223,0,0,0,2.094,3.01,2.545,2.545,0,0,0-.159.861,2.563,2.563,0,0,0,3.49,2.407,2.574,2.574,0,0,0,4.9-1.117V5.807a2.574,2.574,0,0,0-4.9-1.117,2.557,2.557,0,0,0-3.332,3.268Zm2.422-2.151a1.292,1.292,0,0,1,1.29,1.29h1.29a2.556,2.556,0,0,0-.595-1.628,1.287,1.287,0,0,1,2.53.337V23.871a1.287,1.287,0,0,1-2.53.337,2.555,2.555,0,0,0,.595-1.628h-1.29a1.29,1.29,0,1,1-1.29-1.29V20a2.556,2.556,0,0,0-1.645.609,1.934,1.934,0,1,1,2.29-1.9h1.29a3.229,3.229,0,0,0-3.226-3.226,3.192,3.192,0,0,0-1.935.662v-.017a1.29,1.29,0,0,1,0-2.581v-.017a3.191,3.191,0,0,0,1.935.662,3.229,3.229,0,0,0,3.226-3.226h-1.29a1.935,1.935,0,1,1-2.29-1.9,2.556,2.556,0,0,0,1.645.609V8.388a1.29,1.29,0,0,1,0-2.581Zm0,0" fill="#ff8200"/>
      <path id="Path_59" data-name="Path 59" d="M26.452,4.517a2.567,2.567,0,0,0-.909.174,2.574,2.574,0,0,0-4.9,1.117V23.871a2.574,2.574,0,0,0,4.9,1.117,2.563,2.563,0,0,0,3.49-2.407,2.537,2.537,0,0,0-.159-.861,3.223,3.223,0,0,0,2.094-3.01,3.187,3.187,0,0,0-.37-1.468,2.57,2.57,0,0,0,0-4.806,3.187,3.187,0,0,0,.37-1.468,3.223,3.223,0,0,0-2.094-3.01,2.536,2.536,0,0,0,.159-.861,2.583,2.583,0,0,0-2.581-2.581Zm3.226,6.452a1.935,1.935,0,1,1-3.871,0h-1.29a3.229,3.229,0,0,0,3.226,3.226,3.191,3.191,0,0,0,1.935-.662v.017a1.29,1.29,0,0,1,0,2.581v.017a3.192,3.192,0,0,0-1.935-.662,3.23,3.23,0,0,0-3.226,3.226h1.29a1.935,1.935,0,1,1,2.29,1.9A2.558,2.558,0,0,0,26.452,20v1.29a1.29,1.29,0,1,1-1.29,1.29h-1.29a2.555,2.555,0,0,0,.595,1.628,1.287,1.287,0,0,1-2.53-.337V5.807a1.287,1.287,0,0,1,2.53-.337A2.556,2.556,0,0,0,23.871,7.1h1.29a1.29,1.29,0,1,1,1.29,1.29v1.29A2.557,2.557,0,0,0,28.1,9.069a1.936,1.936,0,0,1,1.58,1.9Zm0,0" fill="#ff8200"/>
      <path id="Path_60" data-name="Path 60" d="M30.159,4.024A14.715,14.715,0,0,0,19.052.031l.08,1.287a13.547,13.547,0,0,1,8.344,24.817,7.976,7.976,0,0,0-2.915,3.543h-9.15a8.107,8.107,0,0,0-2.93-3.57,13.488,13.488,0,0,1-6.023-11.7l-1.29-.04a14.769,14.769,0,0,0,6.6,12.813A6.8,6.8,0,0,1,14,29.678H12.258v1.29h2.254a7.445,7.445,0,0,1,.276,1.29H13.548v1.29h1.29v1.935a.645.645,0,0,0,.645.645h.645a3.871,3.871,0,0,0,7.742,0h.645a.645.645,0,0,0,.645-.645V33.549h1.29v-1.29H25.207a7.192,7.192,0,0,1,.259-1.29h2.276v-1.29H25.975a6.652,6.652,0,0,1,2.215-2.467A14.836,14.836,0,0,0,30.159,4.024ZM20,38.71a2.583,2.583,0,0,1-2.581-2.581h5.161A2.583,2.583,0,0,1,20,38.71Zm3.871-3.871H16.129v-1.29h7.742Zm.046-2.581H16.077a8.785,8.785,0,0,0-.219-1.29h8.259a8.572,8.572,0,0,0-.2,1.29Zm0,0" fill="#ff8200"/>
      <path id="Path_61" data-name="Path 61" d="M4.516,4.517A2.583,2.583,0,0,1,7.1,7.1a.645.645,0,1,0,1.29,0,2.583,2.583,0,0,1,2.581-2.581.645.645,0,1,0,0-1.29A2.583,2.583,0,0,1,8.387.646a.645.645,0,0,0-1.29,0A2.583,2.583,0,0,1,4.516,3.226a.645.645,0,0,0,0,1.29ZM7.742,2.783A3.9,3.9,0,0,0,8.831,3.872,3.909,3.909,0,0,0,7.742,4.96,3.9,3.9,0,0,0,6.654,3.872,3.9,3.9,0,0,0,7.742,2.783Zm0,0" fill="#ff8200"/>
      <path id="Path_62" data-name="Path 62" d="M7.1,10.968a.645.645,0,0,0,0-1.29A2.583,2.583,0,0,1,4.516,7.1a.645.645,0,0,0-1.29,0A2.583,2.583,0,0,1,.645,9.678a.645.645,0,1,0,0,1.29,2.583,2.583,0,0,1,2.581,2.581.645.645,0,0,0,1.29,0A2.583,2.583,0,0,1,7.1,10.968Zm-3.226.443a3.9,3.9,0,0,0-1.088-1.088A3.909,3.909,0,0,0,3.871,9.235,3.913,3.913,0,0,0,4.96,10.323,3.909,3.909,0,0,0,3.871,11.411Zm0,0" fill="#ff8200"/>
    </g>
  </g>
</svg>
