<svg xmlns="http://www.w3.org/2000/svg" xmlns:xlink="http://www.w3.org/1999/xlink" width="40" height="40" viewBox="0 0 40 40">
  <defs>
    <clipPath id="clip-path">
      <rect id="Rectangle_64" data-name="Rectangle 64" width="40" height="40" transform="translate(1698 4252)" fill="#ff8200"/>
    </clipPath>
  </defs>
  <g id="Mask_Group_15" data-name="Mask Group 15" transform="translate(-1698 -4252)" clip-path="url(#clip-path)">
    <g id="_12._Service" data-name="12. Service" transform="translate(1697.981 4252)">
      <path id="Path_85" data-name="Path 85" d="M.107,3.666,2.773,8.331a.666.666,0,0,0,.416.316l2.487.622L14.205,17.8l.942-.942L6.485,8.193a.665.665,0,0,0-.309-.175l-2.39-.6L1.517,3.444,3.462,1.5,7.438,3.77l.6,2.39a.665.665,0,0,0,.175.31l8.663,8.663.942-.942L9.288,5.661,8.667,3.175a.667.667,0,0,0-.316-.417L3.686.093a.666.666,0,0,0-.8.107L.221,2.865a.666.666,0,0,0-.114.8Zm0,0" fill="#ff8200"/>
      <path id="Path_86" data-name="Path 86" d="M27.812,13.133l-14.66,14.66-.942-.942,14.66-14.66Zm0,0" fill="#ff8200"/>
      <path id="Path_87" data-name="Path 87" d="M10.586,28.312a.666.666,0,0,0-.571-.323h-4a.666.666,0,0,0-.571.323l-2,3.332a.666.666,0,0,0,0,.686l2,3.332a.666.666,0,0,0,.571.323h4a.667.667,0,0,0,.571-.323l2-3.332a.666.666,0,0,0,0-.686Zm-.948,6.34H6.394l-1.6-2.665,1.6-2.666H9.638l1.6,2.666Zm0,0" fill="#ff8200"/>
      <path id="Path_88" data-name="Path 88" d="M32,15.994a7.969,7.969,0,0,0,7.751-9.929.666.666,0,0,0-1.117-.311L34.49,9.9,31.2,8.8l-1.1-3.29L34.25,1.364A.666.666,0,0,0,33.937.246,7.972,7.972,0,0,0,24.008,8a7.821,7.821,0,0,0,.162,1.561L9.577,24.152a7.861,7.861,0,0,0-1.561-.162,8,8,0,1,0,8,8,7.842,7.842,0,0,0-.162-1.561l3.494-3.494,1.528,1.528a.667.667,0,0,0,.942,0l.333-.333a.747.747,0,0,1,1.058,1.056h0l-.333.333a.666.666,0,0,0,0,.942l7.949,7.949a5.378,5.378,0,1,0,7.64-7.571l-.034-.035-7.949-7.949a.666.666,0,0,0-.942,0l-.333.333a.747.747,0,0,1-1.058-1.055h0l.333-.333a.666.666,0,0,0,0-.942L26.95,19.326l3.494-3.494A7.841,7.841,0,0,0,32,15.994ZM34.623,38.65a4.049,4.049,0,0,1-1.417-.258l5.2-5.2a4.041,4.041,0,0,1-3.787,5.463ZM27.074,21.332a2.08,2.08,0,0,0,2.932,2.928l7.478,7.485c.081.081.157.167.231.254l-5.7,5.7c-.087-.073-.173-.149-.255-.231l-7.484-7.484a2.08,2.08,0,0,0-2.932-2.928L20.28,25.987l5.727-5.719Zm2.691-6.7L14.648,29.743a.667.667,0,0,0-.176.633A6.708,6.708,0,1,1,9.626,25.53a.672.672,0,0,0,.633-.176L25.372,10.241a.666.666,0,0,0,.175-.633,6.631,6.631,0,0,1,6.836-8.263L28.868,4.861a.666.666,0,0,0-.161.681l1.333,4a.667.667,0,0,0,.422.421l4,1.333a.666.666,0,0,0,.681-.161l3.515-3.515c.008.127.012.253.012.378a6.629,6.629,0,0,1-8.274,6.456.667.667,0,0,0-.633.175h0Zm0,0" fill="#ff8200"/>
      <path id="Path_89" data-name="Path 89" d="M34.475,33.514l-.942.942L26.87,27.793l.942-.942Zm0,0" fill="#ff8200"/>
    </g>
  </g>
</svg>
