<svg xmlns="http://www.w3.org/2000/svg" xmlns:xlink="http://www.w3.org/1999/xlink" width="40" height="40" viewBox="0 0 40 40">
  <defs>
    <clipPath id="clip-path">
      <rect id="Rectangle_57" data-name="Rectangle 57" width="40" height="40" transform="translate(803 4004)" fill="#ff8200"/>
    </clipPath>
  </defs>
  <g id="Mask_Group_6" data-name="Mask Group 6" transform="translate(-803 -4004)" clip-path="url(#clip-path)">
    <path id="_3._Best_people" data-name="3. Best people" d="M35.2,17.338a2.762,2.762,0,0,0,.645-1.986,3.712,3.712,0,0,0-.633-1.338,2.978,2.978,0,0,1-.483-.954A2.98,2.98,0,0,1,34.854,12a3.119,3.119,0,0,0,.059-1.768,3.175,3.175,0,0,0-1.2-1.349,2.983,2.983,0,0,1-.754-.7,2.97,2.97,0,0,1-.24-1.028,3.142,3.142,0,0,0-.557-1.695,3.163,3.163,0,0,0-1.584-.847,3,3,0,0,1-.96-.407,3.015,3.015,0,0,1-.571-.877,3.162,3.162,0,0,0-1.107-1.409,3.157,3.157,0,0,0-1.77-.255A3.021,3.021,0,0,1,25.115,1.6a3,3,0,0,1-.828-.625A3.167,3.167,0,0,0,22.756.026a3.159,3.159,0,0,0-1.745.366A3.052,3.052,0,0,1,20,.7h0A2.918,2.918,0,0,1,19.02.4,3.183,3.183,0,0,0,17.245.03,3.185,3.185,0,0,0,15.7.985a2.915,2.915,0,0,1-.818.617,3.054,3.054,0,0,1-1.055.057,3.157,3.157,0,0,0-1.765.252,3.166,3.166,0,0,0-1.113,1.416,3,3,0,0,1-.565.871,3.023,3.023,0,0,1-.966.413,3.157,3.157,0,0,0-1.575.845,3.162,3.162,0,0,0-.558,1.7,3.014,3.014,0,0,1-.237,1.02,3.005,3.005,0,0,1-.763.711,3.165,3.165,0,0,0-1.2,1.338,3.143,3.143,0,0,0,.056,1.783,2.97,2.97,0,0,1,.126,1.048,2.893,2.893,0,0,1-.467.916,2.762,2.762,0,0,0-.645,1.986A3.712,3.712,0,0,0,4.79,17.3a2.98,2.98,0,0,1,.483.954,2.98,2.98,0,0,1-.128,1.062,3.12,3.12,0,0,0-.059,1.768,3.172,3.172,0,0,0,1.2,1.349,2.985,2.985,0,0,1,.755.7,2.971,2.971,0,0,1,.24,1.028,3.142,3.142,0,0,0,.558,1.695,2.836,2.836,0,0,0,1.383.785l-4.092,8.79a.625.625,0,0,0,.674.88l4.8-.839,2.45,4.216A.625.625,0,0,0,13.6,40h.028a.625.625,0,0,0,.538-.361l3.908-8.393a5.9,5.9,0,0,0,.911-.325A3.053,3.053,0,0,1,20,30.613h0a2.919,2.919,0,0,1,.979.3,3.184,3.184,0,0,0,1.776.37l.07-.015,2.895,6.72a.625.625,0,0,0,.528.376l.047,0a.625.625,0,0,0,.531-.3L29.4,33.927l4.777.978a.625.625,0,0,0,.7-.86L31.55,26.332a2.005,2.005,0,0,0,.605-.475,3.162,3.162,0,0,0,.558-1.7,3.013,3.013,0,0,1,.237-1.02,3,3,0,0,1,.763-.712,3.163,3.163,0,0,0,1.2-1.337,3.141,3.141,0,0,0-.056-1.783,2.968,2.968,0,0,1-.126-1.048,2.9,2.9,0,0,1,.467-.916ZM13.542,38.026l-2.067-3.558a.625.625,0,0,0-.648-.3l-4.053.708,3.614-7.762h0a3.013,3.013,0,0,1,.571.878A3.161,3.161,0,0,0,12.066,29.4a3.155,3.155,0,0,0,1.77.255,3.016,3.016,0,0,1,1.049.057,3,3,0,0,1,.829.625,4.4,4.4,0,0,0,1.041.789Zm15.679-5.41a.625.625,0,0,0-.656.283l-2.17,3.5-2.469-5.731c.13-.11.253-.224.372-.335a2.912,2.912,0,0,1,.818-.617,3.058,3.058,0,0,1,1.055-.057,3.157,3.157,0,0,0,1.765-.252,3.165,3.165,0,0,0,1.113-1.417,2.994,2.994,0,0,1,.565-.871,2.375,2.375,0,0,1,.762-.349l2.875,6.676Zm4.929-15.958a3.843,3.843,0,0,0-.649,1.38,3.924,3.924,0,0,0,.138,1.544,2.325,2.325,0,0,1,.1,1.076,2.345,2.345,0,0,1-.777.768,3.9,3.9,0,0,0-1.092,1.084,3.909,3.909,0,0,0-.4,1.491,2.344,2.344,0,0,1-.276,1.054,2.343,2.343,0,0,1-.986.454,3.921,3.921,0,0,0-1.4.65,3.885,3.885,0,0,0-.874,1.259,2.343,2.343,0,0,1-.625.9,2.354,2.354,0,0,1-1.078.086,3.948,3.948,0,0,0-1.543.13,3.791,3.791,0,0,0-1.243.877,2.353,2.353,0,0,1-.908.639,2.352,2.352,0,0,1-1.072-.29,3.8,3.8,0,0,0-1.466-.4h0a3.951,3.951,0,0,0-1.5.405,2.356,2.356,0,0,1-1.042.288,2.342,2.342,0,0,1-.9-.634,3.889,3.889,0,0,0-1.252-.885,2.928,2.928,0,0,0-1.008-.149c-.182,0-.361.009-.532.017a2.341,2.341,0,0,1-1.082-.089,2.344,2.344,0,0,1-.62-.9,3.907,3.907,0,0,0-.881-1.266,3.9,3.9,0,0,0-1.4-.645,2.343,2.343,0,0,1-.993-.456,2.33,2.33,0,0,1-.274-1.046,3.922,3.922,0,0,0-.4-1.5,3.875,3.875,0,0,0-1.083-1.075,2.342,2.342,0,0,1-.783-.777,2.311,2.311,0,0,1,.1-1.062,3.939,3.939,0,0,0,.14-1.559,3.94,3.94,0,0,0-.665-1.416,2.856,2.856,0,0,1-.451-.876c-.052-.3.2-.681.463-1.089A3.842,3.842,0,0,0,6.5,13.276a3.924,3.924,0,0,0-.138-1.544,2.328,2.328,0,0,1-.1-1.076,2.346,2.346,0,0,1,.778-.769A3.9,3.9,0,0,0,8.131,8.805a3.906,3.906,0,0,0,.395-1.491A2.347,2.347,0,0,1,8.8,6.26a2.343,2.343,0,0,1,.986-.454,3.918,3.918,0,0,0,1.4-.65,3.891,3.891,0,0,0,.874-1.26,2.344,2.344,0,0,1,.625-.9,2.356,2.356,0,0,1,1.078-.086,3.947,3.947,0,0,0,1.543-.13A3.79,3.79,0,0,0,16.554,1.9a2.351,2.351,0,0,1,.908-.639,2.346,2.346,0,0,1,1.072.29A3.8,3.8,0,0,0,20,1.95h0A3.951,3.951,0,0,0,21.5,1.545a2.363,2.363,0,0,1,1.043-.288,2.344,2.344,0,0,1,.9.635,3.886,3.886,0,0,0,1.252.884,3.923,3.923,0,0,0,1.54.132A2.342,2.342,0,0,1,27.309,3a2.345,2.345,0,0,1,.62.9,3.906,3.906,0,0,0,.881,1.266,3.9,3.9,0,0,0,1.4.645,2.345,2.345,0,0,1,.993.456,2.327,2.327,0,0,1,.274,1.046,3.924,3.924,0,0,0,.4,1.5,3.874,3.874,0,0,0,1.083,1.075,2.344,2.344,0,0,1,.783.778,2.308,2.308,0,0,1-.1,1.061,3.94,3.94,0,0,0-.14,1.56,3.939,3.939,0,0,0,.665,1.417,2.856,2.856,0,0,1,.451.875c.052.3-.2.68-.463,1.088ZM20,4.392A11.265,11.265,0,1,0,31.265,15.657,11.278,11.278,0,0,0,20,4.392Zm0,21.28A10.015,10.015,0,1,1,30.015,15.657,10.026,10.026,0,0,1,20,25.672Zm3.527-11.638a15.175,15.175,0,0,0-1.883-.343,4.37,4.37,0,0,0,1.618-3.531A3.077,3.077,0,0,0,20,6.791a3.077,3.077,0,0,0-3.262,3.369,4.373,4.373,0,0,0,1.611,3.526,14.086,14.086,0,0,0-1.882.349c-1.9.489-2.952,1.547-2.952,2.978v5.323a.625.625,0,0,0,.625.625H25.86a.625.625,0,0,0,.625-.625V17.012c0-1.427-1.078-2.513-2.957-2.979ZM20,8.041a1.846,1.846,0,0,1,2.012,2.119C22.012,11.7,21.091,13,20,13s-2.012-1.3-2.012-2.84A1.865,1.865,0,0,1,20,8.041ZM25.235,21.71H23.822V18.236a.625.625,0,0,0-1.25,0V21.71H17.428V18.236a.625.625,0,1,0-1.25,0V21.71H14.766v-4.7c0-1.033,1.095-1.531,2.013-1.767a13.026,13.026,0,0,1,6.447,0c.75.186,2.008.663,2.008,1.766v4.7Z" transform="translate(803 4004)" fill="#ff8200"/>
  </g>
</svg>
