<svg xmlns="http://www.w3.org/2000/svg" xmlns:xlink="http://www.w3.org/1999/xlink" width="40" height="40" viewBox="0 0 40 40">
  <defs>
    <clipPath id="clip-path">
      <rect id="Rectangle_56" data-name="Rectangle 56" width="40" height="40" transform="translate(523 4004)" fill="#ff8200"/>
    </clipPath>
  </defs>
  <g id="Mask_Group_5" data-name="Mask Group 5" transform="translate(-523 -4004)" clip-path="url(#clip-path)">
    <path id="_2._Technology_-_B2B_B2C." data-name="2. Technology - B2B &amp; B2C." d="M23.7,36.395l-1.255,3.259a.54.54,0,0,1-.5.346H18.055a.54.54,0,0,1-.5-.346L16.4,36.669a16.869,16.869,0,0,1-5.643-2.34l-2.924,1.3a.542.542,0,0,1-.6-.112l-2.75-2.75a.54.54,0,0,1-.112-.6l1.3-2.924A16.87,16.87,0,0,1,3.33,23.6L.346,22.449a.54.54,0,0,1-.346-.5V18.055a.54.54,0,0,1,.346-.5L3.33,16.4a16.853,16.853,0,0,1,2.34-5.643l-1.3-2.925a.54.54,0,0,1,.112-.6l2.75-2.75a.54.54,0,0,1,.6-.112l2.924,1.3A16.862,16.862,0,0,1,16.4,3.331L17.551.346a.54.54,0,0,1,.5-.346h3.889a.54.54,0,0,1,.5.346L23.7,3.606a.54.54,0,0,1-1.009.389L21.574,1.081H18.427L17.3,3.995a.54.54,0,0,1-.4.336,15.812,15.812,0,0,0-5.794,2.4.541.541,0,0,1-.52.045L7.735,5.51,5.51,7.735l1.268,2.856a.541.541,0,0,1-.045.52,15.8,15.8,0,0,0-2.4,5.794.54.54,0,0,1-.336.4L1.081,18.427v3.147l2.913,1.122a.54.54,0,0,1,.336.4,15.817,15.817,0,0,0,2.4,5.795.541.541,0,0,1,.045.52L5.51,32.265,7.735,34.49l2.855-1.268a.541.541,0,0,1,.52.045,15.805,15.805,0,0,0,5.794,2.4.54.54,0,0,1,.4.336l1.122,2.914h3.147L22.7,36.006a.54.54,0,1,1,1.008.389Zm-7.9-9.441a.54.54,0,1,0,.56-.925,7.043,7.043,0,0,1,0-12.057.54.54,0,1,0-.56-.925,8.124,8.124,0,0,0,0,13.906ZM40,20a2.514,2.514,0,0,1-4.97.541H20.541V23h5.481a.541.541,0,0,1,.382.158L28.4,25.147h1.342a2.515,2.515,0,1,1,0,1.081H28.172a.541.541,0,0,1-.382-.158L25.8,24.078H20.541v2.456h4.445a.541.541,0,0,1,.382.158l3.852,3.852a.541.541,0,0,1,.158.382v1.93a2.495,2.495,0,1,1-1.081,0v-1.7l-3.535-3.535H20.541V31.5a.541.541,0,0,1-.541.541A12.038,12.038,0,0,1,20,7.962a.541.541,0,0,1,.541.541v3.882h4.222L28.3,8.85V7.145a2.5,2.5,0,1,1,1.191-.023c-.036.01-.073.014-.11.022v1.93a.541.541,0,0,1-.158.382l-3.852,3.852a.541.541,0,0,1-.382.158H20.54v2.456h5.122l2.353-2.353a.541.541,0,0,1,.382-.158h1.34a2.515,2.515,0,1,1,0,1.081H28.622l-2.353,2.353a.541.541,0,0,1-.382.158H20.541v2.456H35.03A2.514,2.514,0,0,1,40,20Zm-9.241-6.049a1.434,1.434,0,1,0,1.434-1.434A1.435,1.435,0,0,0,30.759,13.951ZM28.121,5.934a1.434,1.434,0,1,0,.719-2.676,1.443,1.443,0,0,0-.373.05,1.434,1.434,0,0,0-.346,2.627ZM19.459,9.056a10.957,10.957,0,0,0,0,21.887Zm9.376,24.818a1.434,1.434,0,1,0,1.244.717,1.426,1.426,0,0,0-1.244-.717Zm1.924-8.187a1.434,1.434,0,1,0,1.434-1.434A1.435,1.435,0,0,0,30.759,25.687ZM38.919,20a1.434,1.434,0,1,0-1.434,1.434A1.435,1.435,0,0,0,38.919,20Z" transform="translate(523 4004)" fill="#ff8200"/>
  </g>
</svg>
