<svg xmlns="http://www.w3.org/2000/svg" xmlns:xlink="http://www.w3.org/1999/xlink" width="40" height="40" viewBox="0 0 40 40">
  <defs>
    <clipPath id="clip-path">
      <rect id="Rectangle_66" data-name="Rectangle 66" width="40" height="40" transform="translate(517 4252)" fill="#ff8200"/>
    </clipPath>
  </defs>
  <g id="Mask_Group_11" data-name="Mask Group 11" transform="translate(-517 -4252)" clip-path="url(#clip-path)">
    <path id="_8._PARTNERSHIP" data-name="8. PARTNERSHIP" d="M39.883,18.944,35.5,7.145a1.872,1.872,0,0,0-2.4-1.1L30.166,7.133a1.871,1.871,0,0,0-1.1,2.4l.048.128c-.694.263-1.469-.024-2.652-.52-1.768-.74-4.165-1.734-7.209.17A7.453,7.453,0,0,0,13.126,8.5a8.548,8.548,0,0,1-2.56.248,1.86,1.86,0,0,0-1.28-1.583L6.307,6.2A1.872,1.872,0,0,0,3.955,7.4L.09,19.383a1.87,1.87,0,0,0,1.2,2.351l2.978.961a1.824,1.824,0,0,0,1.864-.44c.018.091.043.18.065.27L5.457,23.92a2.581,2.581,0,0,0-.17,1.989A2.422,2.422,0,0,0,6.5,27.361a2.528,2.528,0,0,0,1.566.273,2.612,2.612,0,0,0,.015,1.54,2.422,2.422,0,0,0,1.213,1.452,2.526,2.526,0,0,0,1.936.189,2.56,2.56,0,0,0,.719-.347,2.419,2.419,0,0,0,1.205,1.43,2.526,2.526,0,0,0,1.936.189,2.6,2.6,0,0,0,.416-.166,2.978,2.978,0,0,0,1.452,1.859,2.423,2.423,0,0,0,1.132.293,2.369,2.369,0,0,0,2.1-1.445l.111-.208.126.066.3.155a2.3,2.3,0,0,0,1.055.27,2.17,2.17,0,0,0,1.9-1.2,2.32,2.32,0,0,0,.214-1.573,2.64,2.64,0,0,0,.9-.11,2.6,2.6,0,0,0,1.827-2.864,2.631,2.631,0,0,0,3.608-2.825,2.065,2.065,0,0,0,2.4-.472,2.934,2.934,0,0,0,.6-2.645l.15-.054.009,0,.062.168a1.869,1.869,0,0,0,2.4,1.1l2.933-1.089a1.871,1.871,0,0,0,1.1-2.4ZM5.6,21.159a.791.791,0,0,1-.991.508l-2.978-.961a.788.788,0,0,1-.508-.991L4.984,7.736a.781.781,0,0,1,.391-.458.789.789,0,0,1,.36-.088.78.78,0,0,1,.24.038h0l2.978.961a.791.791,0,0,1,.508.991L6.375,18.745a.532.532,0,0,0-.036.082c-.027.084-.048.168-.072.252ZM7,26.4a1.357,1.357,0,0,1-.679-.819A1.494,1.494,0,0,1,6.41,24.43l.842-1.575h0l.4-.752a1.461,1.461,0,1,1,2.577,1.379l-.287.536L8.986,25.81A1.466,1.466,0,0,1,7,26.4Zm4.785,2.673a1.467,1.467,0,0,1-1.991.593,1.358,1.358,0,0,1-.679-.82A1.493,1.493,0,0,1,9.2,27.695L9.94,26.32l.959-1.794a1.461,1.461,0,0,1,2.577,1.379l-.269.5v0l-1.094,2.046h0Zm2.995,1.979a1.461,1.461,0,0,1-1.126-.115,1.358,1.358,0,0,1-.679-.819,1.5,1.5,0,0,1,.092-1.15v0l1.094-2.046h0a1.461,1.461,0,0,1,2.576,1.38l-.547,1.023-.485.907h0l-.062.115a1.451,1.451,0,0,1-.866.707Zm2.691,1.774a1.642,1.642,0,0,1-.81-2.088l.485-.907h0a1.7,1.7,0,0,1,.923-.777,1.377,1.377,0,0,1,1.122.053c.712.381.827.714.851.931a2.667,2.667,0,0,1-.451,1.418v0l-.353.66C18.636,33.237,17.871,33.043,17.467,32.827Zm5.25-1.617a1.058,1.058,0,0,1-1.5.47l-.29-.151-.134-.07a3,3,0,0,0,.32-1.54,2.1,2.1,0,0,0-.99-1.5l2.129,1.143A1.233,1.233,0,0,1,22.717,31.21Zm9.114-8.071a1.071,1.071,0,0,1-1.42.1l-1.542-.825,0,0c-.016-.008-.032-.013-.048-.02l-4.971-2.7a.54.54,0,0,0-.516.95L28.407,23.4a1.55,1.55,0,0,1-1.515,2.7l-1.533-.82a.542.542,0,0,0-.087-.058l-3.7-1.978a.54.54,0,1,0-.51.953l3.606,1.928a.536.536,0,0,0,.087.059,1.53,1.53,0,0,1-1.443,2.7l-.783-.418a.538.538,0,0,0-.122-.046l-3.158-1.7a.54.54,0,1,0-.511.952l.664.356a2.43,2.43,0,0,0-1.438-.075,2.539,2.539,0,0,0-3.238-2.783,2.571,2.571,0,0,0-.11-.694,2.536,2.536,0,0,0-3.112-1.712A2.777,2.777,0,0,0,10.218,20.6a.544.544,0,0,0-.076-.049,2.548,2.548,0,0,0-3.056.505,5.707,5.707,0,0,1,.221-1.679l3.085-9.562a9.285,9.285,0,0,0,2.944-.257,6.47,6.47,0,0,1,4.947.438,14.344,14.344,0,0,0-1.251,1.13c-.33.333-.668.666-1,.991a12.682,12.682,0,0,0-2.544,2.932.54.54,0,0,0,.066.528c2.151,2.893,4.759,1.912,6.853,1.123,1.57-.591,2.926-1.1,4.006-.248a.537.537,0,0,0,.064.044c.516.3,1.226.65,2.049,1.056,1.989.983,4.713,2.328,5.417,3.4a1.91,1.91,0,0,1-.114,2.192Zm.933-2.9c-.944-1.28-3.6-2.6-5.758-3.66-.788-.389-1.471-.726-1.954-1-1.552-1.2-3.317-.534-5.025.109-2.025.762-3.785,1.425-5.393-.488a20.162,20.162,0,0,1,2.156-2.311c.334-.328.677-.665,1.01-1a12.134,12.134,0,0,1,1.719-1.462c2.723-1.873,4.742-1.029,6.523-.283a6.831,6.831,0,0,0,2.524.7,2.616,2.616,0,0,0,.921-.17l3.52,9.478Zm5.642.092-2.933,1.089a.788.788,0,0,1-1.012-.464l-4.382-11.8a.791.791,0,0,1,.464-1.012l2.933-1.089a.779.779,0,0,1,.271-.049.792.792,0,0,1,.33.073.781.781,0,0,1,.41.44l4.382,11.8a.788.788,0,0,1-.464,1.012Z" transform="translate(517 4252)" fill="#ff8200"/>
  </g>
</svg>
